<?xml version="1.0" standalone="no"?>
<!DOCTYPE svg PUBLIC "-//W3C//DTD SVG 20010904//EN"
 "http://www.w3.org/TR/2001/REC-SVG-20010904/DTD/svg10.dtd">
<svg version="1.0" xmlns="http://www.w3.org/2000/svg"
 width="705.000000pt" height="388.000000pt" viewBox="0 0 705.000000 388.000000"
 preserveAspectRatio="xMidYMid meet">

<g transform="translate(0.000000,388.000000) scale(0.100000,-0.100000)"
fill="#000000" stroke="none">
<path d="M0 1940 l0 -1940 3525 0 3525 0 0 1940 0 1940 -3525 0 -3525 0 0
-1940z m3508 1358 c20 -20 15 -66 -8 -78 -45 -24 -88 21 -67 68 11 24 54 31
75 10z m-314 -141 c36 -26 -4 -84 -41 -61 -24 15 -27 38 -8 58 20 19 26 20 49
3z m601 -3 c19 -20 16 -43 -7 -58 -21 -13 -51 2 -56 26 -3 16 23 48 38 48 5 0
16 -7 25 -16z m-278 -64 l32 -70 37 25 c43 29 134 57 134 41 0 -2 -11 -29 -25
-60 l-25 -56 58 6 c47 5 68 2 105 -14 26 -12 47 -23 47 -25 0 -3 -20 -17 -45
-31 -54 -32 -90 -82 -111 -153 l-15 -53 -235 0 c-179 0 -235 3 -238 13 -27
101 -63 158 -123 194 -24 14 -43 27 -43 30 0 2 21 13 47 25 37 16 58 19 104
14 l58 -6 -21 48 c-11 26 -25 53 -32 61 -19 24 74 3 127 -30 54 -33 57 -33 57
-18 0 23 53 129 64 129 6 0 26 -32 43 -70z m-493 -126 c29 -29 -17 -80 -49
-54 -18 15 -19 42 -3 58 16 16 33 15 52 -4z m944 7 c18 -11 11 -51 -10 -65
-26 -16 -53 14 -44 48 6 26 29 33 54 17z m-1175 -211 c75 -16 257 -90 257
-103 0 -3 -26 6 -59 19 -123 50 -176 59 -346 58 -133 0 -173 -4 -239 -22 -116
-32 -224 -89 -364 -190 -141 -103 -216 -140 -312 -154 -55 -8 -78 -7 -124 6
-121 35 -197 173 -102 184 20 3 35 -6 63 -38 57 -63 91 -80 159 -80 67 0 129
25 215 86 208 148 288 191 417 223 106 27 113 28 237 29 76 1 137 -4 198 -18z
m1742 1 c153 -32 244 -76 428 -209 120 -86 177 -112 250 -112 70 0 99 14 155
75 33 36 48 46 69 43 95 -11 18 -148 -103 -184 -134 -39 -286 24 -519 211 -37
30 -199 104 -275 125 -96 28 -278 37 -390 21 -46 -7 -118 -25 -161 -40 -44
-16 -79 -27 -79 -25 0 6 79 44 124 61 143 54 340 67 501 34z m-1610 -125 c44
-14 108 -44 142 -66 313 -206 305 -631 -14 -739 -152 -51 -301 1 -291 101 4
44 19 41 42 -8 24 -53 85 -94 141 -94 94 0 206 48 253 107 57 72 75 120 80
209 16 311 -293 544 -660 495 -153 -20 -282 -75 -403 -171 -71 -57 -73 -59
-199 -225 -121 -159 -200 -241 -290 -302 -179 -120 -428 -164 -639 -114 -263
63 -416 221 -417 433 -1 326 376 497 614 278 119 -110 138 -295 39 -393 -39
-39 -66 -51 -103 -45 -39 5 -42 39 -8 108 25 52 29 72 26 112 -7 67 -48 124
-117 160 -128 67 -274 11 -339 -131 -21 -45 -24 -64 -20 -125 10 -156 109
-258 323 -331 32 -11 94 -19 175 -22 193 -8 328 30 475 133 75 53 132 112 230
239 166 216 280 311 450 374 109 41 172 51 305 47 101 -3 141 -9 205 -30z
m1479 19 c80 -17 176 -53 246 -93 115 -66 194 -145 364 -364 136 -177 272
-268 464 -312 88 -20 244 -20 337 -1 160 34 312 143 348 249 65 191 -52 376
-237 376 -110 0 -209 -84 -223 -190 -5 -34 0 -55 28 -111 26 -54 31 -74 23
-87 -16 -24 -64 -26 -100 -3 -82 51 -120 161 -90 263 73 251 373 338 579 168
84 -70 130 -172 129 -289 0 -129 -54 -233 -163 -317 -209 -161 -548 -180 -813
-47 -138 69 -215 142 -364 343 -172 232 -305 330 -523 386 -89 23 -265 24
-348 1 -255 -70 -416 -268 -398 -489 13 -152 98 -256 240 -294 117 -31 190 -7
232 77 28 54 45 56 45 6 0 -69 -70 -117 -168 -117 -192 0 -349 139 -368 326
-13 125 56 290 161 382 62 54 191 118 275 136 87 19 234 19 324 1z m-698 -11
c-3 -9 -6 -20 -6 -25 0 -6 -25 -22 -56 -36 -143 -65 -404 -22 -404 68 0 5 99
9 236 9 211 0 235 -2 230 -16z m-874 -55 c63 -12 151 -40 146 -45 -2 -2 -33 4
-68 12 -97 23 -261 14 -365 -19 -193 -63 -363 -216 -429 -387 -27 -67 -32
-186 -12 -246 41 -125 156 -188 244 -134 30 19 52 55 82 137 12 32 40 50 61
38 22 -14 28 -54 16 -103 -58 -221 -351 -212 -444 13 -103 249 88 574 410 697
113 43 256 58 359 37z m1514 -4 c163 -31 297 -106 407 -226 166 -182 203 -409
93 -568 -64 -92 -196 -136 -290 -97 -42 17 -94 70 -112 113 -19 44 -18 117 1
133 27 22 62 -3 75 -52 24 -89 73 -138 139 -138 145 0 231 186 173 377 -54
177 -228 341 -437 410 -69 23 -98 27 -205 27 -69 1 -143 -3 -165 -7 -66 -14
-34 2 46 22 90 24 172 26 275 6z m-851 -465 c9 -17 41 -56 73 -89 l57 -58 -36
-37 c-20 -20 -55 -72 -77 -116 l-41 -80 -42 80 c-23 44 -58 97 -79 117 l-38
38 43 37 c23 20 57 59 76 87 19 28 37 51 41 51 4 0 14 -14 23 -30z m-2348
-777 c14 -11 10 -13 -31 -13 -43 0 -46 1 -32 16 23 22 24 262 1 270 -24 10
-17 22 13 26 l27 3 3 -145 c2 -122 5 -147 19 -157z m123 -3 c11 -7 0 -10 -35
-10 -39 1 -46 3 -32 11 15 9 17 27 17 138 0 107 -3 131 -17 142 -14 13 -13 15
13 19 l29 5 5 -148 c4 -117 8 -150 20 -157z m2040 160 c0 -131 2 -150 18 -159
13 -8 4 -10 -38 -10 -30 0 -48 3 -40 6 26 10 29 24 26 151 -2 111 -5 125 -22
135 -17 10 -17 12 11 18 17 4 33 7 38 8 4 0 7 -66 7 -149z m360 85 l0 -64 48
6 c42 5 50 2 75 -22 19 -19 27 -38 27 -62 0 -79 -58 -130 -136 -118 -50 7 -46
-9 -44 167 1 94 -1 109 -19 127 -20 20 -20 20 7 24 15 2 30 5 35 6 4 0 7 -28
7 -64z m2737 -242 c14 -11 8 -13 -38 -12 -30 0 -47 3 -39 6 27 10 30 26 30
151 0 100 -3 124 -15 128 -24 10 -17 22 13 26 l27 3 3 -145 c2 -122 5 -147 19
-157z m-3212 275 c1 -1 6 -19 10 -38 l8 -35 -31 33 c-26 27 -37 32 -77 32 -85
0 -132 -56 -123 -149 8 -86 60 -128 151 -122 11 0 32 15 48 32 30 32 36 28 20
-15 -8 -21 -19 -26 -66 -31 -136 -17 -234 82 -196 197 23 71 97 110 194 104
32 -2 60 -6 62 -8z m-2533 -100 c26 -57 51 -104 56 -106 5 -1 31 45 58 103
l48 105 41 -1 c37 0 38 -1 16 -12 -23 -11 -23 -14 -17 -86 3 -41 6 -96 6 -123
0 -41 3 -50 23 -58 16 -6 5 -9 -43 -8 -36 0 -58 2 -49 5 23 6 29 33 29 143 -1
113 -5 111 -72 -40 -23 -55 -48 -100 -54 -100 -6 0 -15 15 -21 33 -10 28 -72
174 -80 186 -8 11 -12 -12 -18 -105 l-7 -102 28 -10 c26 -9 22 -10 -31 -11
-48 0 -56 2 -39 11 18 8 23 24 33 109 15 139 15 148 -11 159 -20 7 -17 9 17 9
l41 1 46 -102z m343 92 c4 -6 1 -18 -6 -26 -11 -13 -14 -13 -27 0 -8 8 -11 19
-8 25 9 14 33 14 41 1z m375 -9 c0 -21 -26 -36 -36 -20 -9 15 3 39 21 39 8 0
15 -9 15 -19z m826 8 c3 -6 0 -17 -7 -25 -18 -17 -44 -2 -36 20 7 18 33 21 43
5z m1877 1 c-22 -9 -23 -14 -23 -135 0 -121 1 -126 23 -135 16 -6 6 -9 -43 -9
-49 0 -59 3 -42 9 21 9 22 14 22 135 0 121 -1 126 -22 135 -17 6 -7 9 42 9 49
0 59 -3 43 -9z m1482 0 c4 -6 1 -18 -6 -26 -11 -13 -14 -13 -27 0 -8 8 -11 19
-8 25 9 14 33 14 41 1z m-1089 -80 c13 0 24 -4 24 -10 0 -5 -11 -10 -25 -10
-25 0 -25 -1 -25 -80 l0 -80 28 0 c26 -1 26 -1 8 -15 -51 -38 -76 -6 -76 96 0
68 -2 79 -17 79 -17 1 -17 1 0 14 9 7 17 19 17 26 0 7 8 19 18 26 15 11 17 9
20 -17 3 -23 8 -29 28 -29z m970 0 c13 0 24 -4 24 -10 0 -5 -11 -10 -25 -10
-26 0 -26 0 -23 -77 3 -78 3 -78 33 -83 l30 -5 -33 -14 c-51 -21 -66 0 -70 97
-3 42 -9 81 -16 85 -8 6 -8 10 2 14 6 2 12 10 12 16 0 6 8 19 18 30 17 19 17
19 20 -12 3 -25 8 -31 28 -31z m-3586 -19 c5 -10 10 -50 12 -90 2 -52 7 -75
18 -82 10 -6 -1 -8 -35 -8 -39 0 -46 2 -32 10 13 8 17 23 17 70 0 33 -5 69
-10 80 -13 23 -53 25 -71 3 -17 -20 -14 -144 3 -156 8 -4 -8 -8 -37 -8 -39 1
-46 3 -32 11 24 14 25 140 1 160 -14 12 -13 14 12 21 21 6 32 4 41 -8 8 -11
13 -12 18 -4 19 30 79 31 95 1z m725 -4 c33 -47 15 -67 -60 -67 -24 0 -46 -3
-49 -8 -2 -4 2 -22 9 -39 16 -37 52 -51 85 -33 12 6 24 10 26 7 9 -8 -33 -37
-64 -43 -44 -9 -92 38 -92 91 0 49 25 94 62 109 37 16 64 10 83 -17z m179 0
c8 -30 -2 -34 -20 -8 -20 28 -58 25 -62 -6 -3 -17 6 -27 37 -43 22 -11 45 -30
52 -41 24 -47 -31 -97 -93 -84 -15 4 -28 13 -28 20 0 7 -3 20 -6 29 -3 9 -1
16 5 16 6 0 11 -7 11 -15 0 -8 11 -22 25 -31 20 -13 28 -14 40 -4 26 22 17 48
-27 77 -48 32 -59 64 -33 93 31 34 90 32 99 -3z m1909 5 c41 -48 21 -72 -57
-72 -42 0 -46 -2 -46 -25 0 -28 35 -65 63 -65 10 0 27 5 38 10 11 6 19 7 19 1
0 -16 -68 -42 -95 -35 -34 8 -65 50 -65 86 0 92 93 157 143 100z m205 -1 c-3
-10 -12 -15 -27 -13 -40 4 -51 -15 -51 -88 0 -57 3 -69 18 -73 9 -3 -8 -5 -38
-6 -42 0 -51 2 -37 10 14 8 17 24 17 84 0 46 -4 77 -12 81 -8 5 -6 10 8 15 31
12 44 10 44 -7 0 -13 4 -12 26 5 28 22 57 18 52 -8z m424 -5 c4 -6 8 -41 8
-78 0 -52 4 -69 17 -76 14 -9 14 -11 -6 -21 -17 -10 -26 -10 -37 0 -11 9 -21
9 -43 -1 -37 -15 -68 0 -77 36 -8 32 7 49 61 67 34 12 40 18 40 43 0 24 -4 30
-28 32 -22 3 -30 -1 -34 -18 -3 -11 -12 -20 -20 -18 -27 6 -16 23 27 45 43 23
72 19 92 -11z m960 0 c4 -6 8 -41 8 -78 0 -52 4 -69 17 -76 14 -9 14 -11 -6
-21 -34 -19 -51 1 -47 55 4 49 -11 57 -52 28 -33 -23 -26 -57 13 -65 l30 -6
-26 -12 c-34 -17 -66 -1 -75 35 -8 32 7 49 61 67 45 16 60 51 30 74 -21 15
-55 1 -55 -23 0 -9 -7 -14 -16 -12 -28 6 -18 23 26 45 43 23 72 19 92 -11z
m-5252 -66 c0 -74 3 -91 18 -99 13 -8 4 -10 -38 -10 -42 0 -51 2 -37 10 14 8
17 24 17 84 0 46 -4 77 -12 81 -8 5 -6 10 8 15 42 17 44 13 44 -81z m370 0 c0
-74 3 -91 18 -99 13 -8 6 -10 -33 -10 -39 0 -46 2 -32 10 14 8 17 24 17 83 0
61 -3 75 -17 81 -16 7 -15 9 7 15 14 5 28 8 33 9 4 1 7 -39 7 -89z m237 66
c24 -21 28 -32 28 -76 0 -46 -4 -55 -33 -81 -37 -33 -60 -36 -107 -14 -53 26
-70 87 -40 145 19 37 41 49 87 50 25 0 46 -8 65 -24z m451 12 c7 -7 12 -40 12
-77 0 -69 5 -85 30 -93 11 -4 9 -8 -8 -17 -19 -10 -26 -10 -38 0 -12 10 -22
10 -48 1 -40 -15 -60 -9 -74 22 -15 33 6 60 63 82 25 9 45 19 45 23 -1 25 -15
50 -31 54 -19 5 -49 -16 -49 -34 0 -5 -7 -9 -15 -9 -23 0 -18 16 11 39 29 23
83 28 102 9z m142 -82 c0 -82 2 -95 18 -99 9 -3 -8 -5 -38 -6 -42 0 -51 2 -37
10 14 8 17 24 17 85 0 62 -3 76 -17 81 -15 6 -14 8 7 14 50 14 50 14 50 -85z
m120 72 l0 -22 20 22 c25 27 63 30 58 5 -3 -12 -12 -17 -27 -15 -40 4 -51 -15
-51 -88 0 -57 3 -69 18 -73 9 -3 -8 -5 -38 -6 -42 0 -51 2 -37 10 14 8 17 24
17 84 0 46 -4 77 -12 81 -8 5 -6 10 8 15 33 13 44 10 44 -13z m1100 -56 c0
-82 9 -102 45 -102 35 0 45 20 45 88 0 50 -4 68 -17 78 -16 12 -14 13 20 14
l37 0 0 -90 c0 -57 4 -90 11 -90 5 0 7 -4 4 -10 -9 -14 -52 -13 -57 2 -3 7
-13 5 -31 -7 -35 -22 -74 -13 -87 21 -6 14 -10 54 -10 90 0 36 -4 64 -10 64
-5 0 -10 5 -10 10 0 6 14 10 30 10 l30 0 0 -78z m775 68 c-8 -13 18 -13 32 1
6 6 26 9 44 7 44 -4 59 -34 59 -120 0 -44 4 -68 13 -71 6 -3 -10 -6 -38 -6
-39 0 -46 2 -32 10 13 8 17 24 17 73 0 79 -16 105 -57 91 -27 -10 -28 -13 -31
-84 -2 -53 1 -77 10 -82 8 -5 -7 -9 -37 -9 -39 1 -46 3 -32 11 13 8 17 24 17
79 0 38 -4 72 -10 75 -15 10 -12 23 8 28 31 8 43 7 37 -3z m767 -1 c3 -9 9 -9
25 0 66 35 103 -1 103 -101 0 -53 4 -69 18 -77 13 -8 6 -10 -33 -11 -33 0 -45
3 -36 9 10 7 13 28 12 78 -2 81 -16 102 -58 87 -27 -9 -28 -13 -31 -79 -2 -57
0 -72 14 -82 15 -11 10 -13 -37 -12 -30 1 -46 3 -37 6 21 5 30 136 10 164 -10
15 -9 18 10 22 13 2 26 5 30 6 3 0 8 -4 10 -10z m598 -79 c0 -74 3 -91 18 -99
13 -8 4 -10 -38 -10 -42 0 -51 2 -37 10 14 8 17 24 17 84 0 48 -4 77 -12 81
-11 7 11 19 45 23 4 1 7 -39 7 -89z m230 70 c44 -44 47 -97 8 -152 -55 -79
-189 -16 -173 82 13 77 115 120 165 70z m142 9 c3 -9 10 -9 26 0 35 18 75 10
89 -19 7 -14 13 -55 13 -92 0 -44 4 -68 13 -71 6 -3 -10 -6 -37 -6 -43 -1 -47
1 -32 12 14 10 16 25 14 81 -3 79 -18 98 -62 78 -25 -11 -26 -16 -26 -86 0
-50 4 -76 13 -79 6 -3 -10 -6 -38 -6 -39 0 -46 2 -32 10 14 8 17 24 17 84 0
43 -4 75 -10 75 -17 0 -11 18 8 23 31 8 40 7 44 -4z m-4902 -305 c143 -12 398
-17 1125 -20 517 -3 941 -8 943 -12 1 -4 -206 -8 -460 -10 -487 -2 -1366 -26
-1578 -42 -167 -13 -337 -12 -361 0 -12 7 -19 21 -19 40 0 23 6 30 33 39 75
23 93 24 317 5z m2515 -12 c11 -5 29 -20 40 -32 28 -31 88 -60 125 -60 31 0
34 7 30 58 -2 27 16 29 30 3 17 -32 12 -58 -16 -80 -18 -14 -36 -19 -55 -16
-16 3 -29 2 -29 -2 0 -14 100 -141 131 -167 34 -29 101 -50 134 -42 13 3 37
19 54 35 26 24 31 36 31 76 0 38 -5 52 -29 76 -32 32 -74 38 -104 14 -10 -7
-17 -22 -15 -32 2 -14 13 -18 43 -18 33 0 41 -4 43 -21 7 -50 -77 -64 -115
-19 -33 37 -29 71 11 111 38 38 69 43 122 18 62 -30 91 -129 57 -193 -28 -53
-64 -75 -124 -74 -40 1 -61 7 -95 32 -25 17 -46 31 -48 31 -2 0 -6 -18 -9 -41
-6 -45 -29 -68 -67 -69 -67 -1 -98 81 -44 116 23 16 26 16 41 1 15 -15 15 -18
-1 -36 -10 -11 -15 -25 -11 -30 11 -18 44 -12 55 10 20 36 -5 101 -62 163 -10
11 -18 23 -18 28 0 4 -4 8 -10 8 -5 0 -10 -9 -10 -20 0 -32 -26 -75 -57 -95
-37 -24 -189 -26 -223 -2 -31 22 -60 67 -60 95 0 30 -11 28 -37 -11 -13 -17
-30 -42 -39 -54 -40 -56 -34 -133 11 -133 25 0 35 23 15 35 -15 9 -12 42 4 48
25 10 56 -22 56 -58 0 -39 -28 -65 -71 -65 -37 0 -72 45 -66 83 2 15 0 30 -5
33 -4 3 -8 1 -8 -5 0 -13 -61 -50 -102 -62 -49 -13 -96 -1 -133 37 -41 40 -51
82 -35 140 15 54 51 91 96 100 90 17 161 -83 104 -144 -36 -38 -120 -22 -120
22 0 24 26 37 53 27 27 -11 37 -6 37 17 0 21 -30 41 -61 42 -83 1 -119 -124
-53 -185 33 -31 66 -38 115 -25 50 14 96 54 158 140 l49 67 -38 -1 c-66 -1
-102 53 -63 96 24 27 30 22 29 -19 -1 -34 2 -38 26 -41 32 -4 79 19 132 64 58
50 139 60 201 26z m2671 8 c31 -12 34 -64 5 -80 -27 -14 -148 -13 -456 4 -455
26 -1637 50 -1839 39 -85 -5 -108 -3 -105 6 4 10 149 13 704 12 639 -1 1171 9
1430 28 115 8 225 4 261 -9z m-5573 -15 c19 -19 11 -52 -15 -60 -40 -13 -67
43 -30 64 23 14 28 13 45 -4z m5678 5 c23 -13 25 -43 3 -61 -31 -26 -70 25
-44 56 15 18 16 18 41 5z m-2906 -419 c-19 -37 -49 -55 -80 -47 -26 7 -38 39
-21 60 6 8 34 25 61 39 l50 25 3 -23 c2 -13 -4 -37 -13 -54z m136 51 c62 -29
75 -46 61 -77 -21 -46 -88 -23 -112 39 -12 32 -13 69 -2 64 4 -2 28 -14 53
-26z m-42 -107 c33 -36 41 -51 35 -68 -11 -36 -48 -49 -71 -26 -8 8 -17 7 -32
-3 -27 -17 -55 -1 -59 35 -2 18 7 37 34 66 20 23 40 41 44 41 4 0 26 -20 49
-45z"/>
<path d="M3275 2900 c-11 -5 -14 -9 -6 -9 10 -1 12 -13 6 -58 -4 -32 -12 -61
-19 -65 -6 -4 2 -8 19 -8 20 0 26 3 17 9 -11 6 -12 19 -5 52 l9 44 20 -52 c10
-29 22 -53 26 -53 4 0 18 24 32 53 l24 52 1 -47 c1 -28 -4 -48 -11 -51 -7 -3
3 -6 22 -6 26 -1 31 2 22 11 -16 16 -16 115 1 121 6 3 0 6 -15 6 -22 1 -29 -6
-44 -44 -9 -25 -20 -45 -23 -45 -4 0 -12 15 -19 33 -18 51 -34 66 -57 57z"/>
<path d="M3482 2877 c-28 -29 -28 -71 -1 -98 28 -28 112 -24 118 6 3 19 3 19
-16 3 -39 -35 -93 -10 -93 44 0 48 67 79 89 41 11 -21 26 -11 18 12 -10 25
-89 20 -115 -8z"/>
<path d="M3618 2893 c7 -3 12 -26 12 -63 0 -37 -5 -60 -12 -63 -7 -3 3 -5 22
-5 19 0 29 2 23 5 -8 3 -13 26 -13 63 0 37 5 60 13 63 6 3 -4 5 -23 5 -19 0
-29 -2 -22 -5z"/>
<path d="M3670 1436 c0 -64 3 -77 21 -89 58 -41 116 53 78 126 -16 30 -28 37
-66 37 l-33 0 0 -74z"/>
<path d="M2491 1506 c-20 -24 -9 -51 21 -52 37 -1 50 9 46 37 -4 29 -48 38
-67 15z"/>
<path d="M4587 1502 c-30 -33 -22 -51 22 -49 49 2 54 8 42 41 -12 31 -41 34
-64 8z"/>
<path d="M5232 1422 c-26 -13 -32 -21 -30 -42 2 -20 9 -26 34 -28 30 -3 32 -1
36 38 2 23 1 43 -2 45 -3 1 -20 -5 -38 -13z"/>
<path d="M1507 1502 c-21 -23 -22 -81 -3 -127 13 -31 19 -35 51 -35 29 0 37 5
45 26 14 36 12 79 -4 119 -12 29 -20 35 -44 35 -16 0 -36 -8 -45 -18z"/>
<path d="M1997 1415 c-11 -8 -17 -23 -15 -37 2 -18 9 -23 33 -23 27 0 30 3 33
38 3 30 0 37 -15 37 -10 0 -26 -7 -36 -15z"/>
<path d="M5690 1501 c-5 -11 -10 -43 -10 -71 0 -41 5 -56 25 -75 13 -14 31
-25 39 -25 26 0 46 42 46 95 0 30 -6 60 -16 73 -20 28 -69 30 -84 3z"/>
<path d="M3413 1169 c-35 -10 -80 -58 -89 -95 -10 -38 17 -96 54 -117 35 -20
72 -16 54 6 -5 6 -11 41 -13 77 l-4 65 49 3 c27 2 53 -1 57 -5 5 -5 5 -42 0
-83 -6 -41 -8 -76 -6 -78 11 -11 63 19 83 48 29 43 28 85 -4 127 -44 58 -102
75 -181 52z"/>
<path d="M3460 1006 c0 -14 4 -27 9 -30 10 -7 20 23 14 42 -8 21 -23 13 -23
-12z"/>
</g>
</svg>
